<?xml version="1.0" encoding="utf-8"?>
<!-- Generator: Adobe Illustrator 25.4.1, SVG Export Plug-In . SVG Version: 6.00 Build 0)  -->
<svg version="1.1" id="Layer_1" xmlns="http://www.w3.org/2000/svg" xmlns:xlink="http://www.w3.org/1999/xlink" x="0px" y="0px"
	 viewBox="0 0 477.9 436" style="enable-background:new 0 0 477.9 436;" xml:space="preserve">
<style type="text/css">
	.st0{opacity:0.15;enable-background:new    ;}
	.st1{fill:#212F54;}
	.st2{fill:#1A1F25;}
	.st3{fill:url(#SVGID_1_);}
	.st4{fill:#B0D0EF;}
	.st5{display:none;fill:url(#SVGID_00000063605070983595927120000014494052784162154890_);}
</style>
<g>
	<path class="st0" d="M400,267.7V310l-155.6,88L90.7,311.3v-44.8C43.8,283,14.2,307,14.2,333.7c0,49.8,102.8,90.1,229.5,90.1
		s229.5-40.3,229.5-90.1C473.2,307.6,445,284.2,400,267.7z"/>
	<polygon class="st1" points="90.2,216.4 90.2,309.7 240.9,398.9 400,310 400,212.8 294.5,273.5 248.4,196.4 198,267.1 	"/>
	<polygon class="st1" points="98.2,122.8 233.8,63.2 387.8,115 241,193 	"/>
	<polygon class="st2" points="22.5,78.3 91.6,122 234.9,67.4 173.2,23.3 	"/>
	<polygon class="st2" points="240.9,61.8 292.7,9.9 441.6,66.6 390.1,117.3 240.9,66.7 	"/>
	<polygon class="st2" points="392.6,121.6 437.7,193 296.2,267.5 285.3,259.7 246.2,196.4 	"/>
	<polygon class="st2" points="241.5,196.3 198,267.1 45.3,196.3 87.9,124.9 95.9,124.1 	"/>
	
		<linearGradient id="SVGID_1_" gradientUnits="userSpaceOnUse" x1="236.8" y1="308" x2="379.3" y2="308" gradientTransform="matrix(1 0 0 -1 0 438)">
		<stop  offset="0" style="stop-color:#000000;stop-opacity:0.6"/>
		<stop  offset="0.4291" style="stop-color:#1D1D1B;stop-opacity:0"/>
		<stop  offset="1" style="stop-color:#1D1D1B;stop-opacity:0"/>
	</linearGradient>
	<polygon class="st3" points="244.8,189.4 379.3,119.5 236.8,70.6 	"/>
	<path class="st4" d="M395.8,215.4v91.7l-146.7,85.3V215.6l-4.1-7.8l-4.2,8v176.5L94.2,307.1v-88.4l-8.3-4.7v96.1
		c0,1.9,0.9,3.6,2.3,4.4l155,90.1c0.6,0.3,1.2,0.5,1.8,0.5s1.2-0.2,1.8-0.5l155-90.1c1.4-0.8,2.3-2.6,2.3-4.4v-99.9L395.8,215.4z"/>
	<g>
		<g>
			<path class="st4" d="M389.7,122.8c-0.5,0-0.9-0.1-1.3-0.2l-153-52.5c-1.3-0.5-2.4-1.6-2.7-3s0.1-2.8,1.1-3.9L289,7.5
				c1.1-1.2,2.8-1.5,4.4-1l152,55.7c1.3,0.5,2.3,1.6,2.6,3c0.3,1.4-0.1,2.8-1.2,3.8l-54.2,52.6C391.8,122.4,390.8,122.8,389.7,122.8
				L389.7,122.8z M244.4,64.4L388.7,114l47.7-46.2L293,15.2L244.4,64.4L244.4,64.4z"/>
		</g>
		<g>
			<path class="st4" d="M198.6,272.6c-0.6,0-1.2-0.1-1.8-0.4l-154-72.4c-1.1-0.5-1.9-1.4-2.2-2.6c-0.3-1.1-0.2-2.3,0.4-3.3
				l45.5-74.6c1.1-1.8,3.4-2.5,5.3-1.6l154.9,72.7c1.1,0.5,1.9,1.4,2.2,2.6c0.3,1.1,0.2,2.4-0.5,3.4L202,270.7
				C201.3,271.9,200,272.6,198.6,272.6L198.6,272.6z M50.6,194.2L197,263.1l42-67.3L91.7,126.7L50.6,194.2L50.6,194.2z"/>
		</g>
		<g>
			<path class="st4" d="M292.6,273.9c-1.4,0-2.7-0.7-3.5-1.9l-47.6-75.7c-0.6-1-0.8-2.2-0.5-3.3s1.1-2.1,2.1-2.6L387.8,115
				c1.9-1,4.3-0.4,5.4,1.5l47.8,75.7c0.6,1,0.8,2.2,0.5,3.3s-1.1,2.1-2.1,2.6l-144.9,75.4C293.9,273.8,293.2,273.9,292.6,273.9
				L292.6,273.9z M250.9,195.7l43.1,68.7l137.6-71.6l-43.4-68.7L250.9,195.7L250.9,195.7z"/>
		</g>
		<g>
			<path class="st4" d="M90.1,125.6c-0.8,0-1.6-0.2-2.2-0.7L19.1,80.5c-1.3-0.9-2-2.4-1.9-3.9c0.2-1.6,1.2-2.9,2.7-3.4L171.3,18
				c1.3-0.5,2.7-0.3,3.8,0.5l64,44.3c1.3,0.9,1.9,2.4,1.8,3.9c-0.2,1.5-1.2,2.8-2.6,3.4L91.6,125.3
				C91.1,125.5,90.6,125.6,90.1,125.6L90.1,125.6z M30.6,78l60,38.8l137.3-51.7l-55.8-38.6L30.6,78L30.6,78z"/>
		</g>
	</g>
</g>
<linearGradient id="SVGID_00000094617277325821522720000015091553212543539607_" gradientUnits="userSpaceOnUse" x1="236.8" y1="308" x2="379.3" y2="308" gradientTransform="matrix(1 0 0 -1 0 438)">
	<stop  offset="0" style="stop-color:#000000;stop-opacity:0.1"/>
	<stop  offset="9.366459e-03" style="stop-color:#090909;stop-opacity:9.781719e-02"/>
	<stop  offset="7.812062e-02" style="stop-color:#494949;stop-opacity:8.179434e-02"/>
	<stop  offset="0.146" style="stop-color:#808080;stop-opacity:6.596567e-02"/>
	<stop  offset="0.2114" style="stop-color:#ADADAD;stop-opacity:5.073270e-02"/>
	<stop  offset="0.2738" style="stop-color:#D0D0D0;stop-opacity:3.619508e-02"/>
	<stop  offset="0.3324" style="stop-color:#E9E9E9;stop-opacity:2.253547e-02"/>
	<stop  offset="0.3858" style="stop-color:#F8F8F8;stop-opacity:1.010139e-02"/>
	<stop  offset="0.4291" style="stop-color:#FDFDFD;stop-opacity:0"/>
	<stop  offset="1" style="stop-color:#FFFFFF;stop-opacity:0"/>
</linearGradient>
<polygon style="display:none;fill:url(#SVGID_00000094617277325821522720000015091553212543539607_);" points="244.8,189.4 
	379.3,119.5 236.8,70.6 "/>
</svg>
